<?xml version="1.0" standalone="no"?>
<!DOCTYPE svg PUBLIC "-//W3C//DTD SVG 20010904//EN"
 "http://www.w3.org/TR/2001/REC-SVG-20010904/DTD/svg10.dtd">
<svg version="1.0" xmlns="http://www.w3.org/2000/svg"
 width="512.000000pt" height="512.000000pt" viewBox="0 0 512.000000 512.000000"
 preserveAspectRatio="xMidYMid meet">
<metadata>
Created by potrace 1.11, written by Peter Selinger 2001-2013
</metadata>
<g transform="translate(0.000000,512.000000) scale(0.100000,-0.100000)"
fill="#000000" stroke="none">
<path d="M1150 5039 c-190 -49 -326 -154 -404 -312 -54 -110 -58 -144 -60
-442 l-2 -270 -162 -1 c-199 -2 -229 -6 -265 -40 -52 -48 -62 -119 -24 -175
39 -58 61 -63 267 -64 l185 0 1 -1175 c0 -646 -1 -1179 -3 -1185 -2 -6 -71
-10 -184 -9 -202 1 -226 -5 -266 -65 -41 -61 -22 -145 44 -188 23 -15 52 -18
188 -20 88 -1 174 -2 190 -2 l30 -1 1 -243 c0 -133 2 -262 4 -287 6 -63 51
-189 90 -246 82 -123 224 -219 370 -250 46 -10 3211 -12 3270 -2 80 13 96 18
151 42 162 72 285 220 325 392 14 62 16 266 15 2064 0 1782 -2 2001 -16 2055
-55 212 -218 369 -435 421 -44 11 -369 13 -1665 13 -927 -1 -1625 -5 -1645
-10z m598 -2480 l2 -2215 -277 2 c-273 1 -279 2 -333 26 -69 31 -115 77 -148
148 -26 55 -26 56 -27 320 l0 264 170 2 c190 1 220 8 255 67 43 70 9 173 -66
197 -21 7 -103 13 -197 14 l-162 1 0 1179 0 1179 160 -1 c179 -1 209 5 251 49
25 26 29 38 29 89 0 48 -4 63 -25 85 -44 47 -65 52 -215 53 -77 0 -154 1 -171
1 l-32 1 2 263 c2 293 6 312 79 394 79 87 139 99 492 97 l210 -1 3 -2214z
m2694 2192 c58 -22 108 -63 145 -116 52 -75 50 17 48 -2085 -1 -1504 -4 -1965
-13 -1997 -24 -83 -109 -166 -197 -194 -31 -10 -297 -13 -1213 -13 -646 -1
-1176 3 -1179 7 -4 6 -7 4115 -4 4374 1 35 4 42 24 45 12 2 542 2 1177 1 1154
-1 1155 -1 1212 -22z"/>
<path d="M2637 4075 c-112 -39 -119 -193 -12 -245 40 -19 64 -20 739 -20 690
0 699 0 736 21 97 55 93 187 -8 238 -37 19 -63 19 -728 19 -549 1 -697 -2
-727 -13z"/>
<path d="M2633 3425 c-48 -21 -75 -59 -80 -112 -5 -55 10 -92 53 -125 l29 -23
710 -3 c539 -2 717 1 740 10 102 41 115 174 23 240 l-33 23 -707 1 c-533 1
-713 -2 -735 -11z"/>
</g>
</svg>
